<mxfile host="app.diagrams.net" modified="2024-03-02T21:51:58.201Z" agent="Mozilla/5.0 (Windows NT 10.0; Win64; x64) AppleWebKit/537.36 (KHTML, like Gecko) Chrome/122.0.0.0 Safari/537.36" etag="o0JhSouq0s2f7TPHQaHF" version="23.1.5" type="github">
  <diagram name="第 1 页" id="zd1IdeoFLhocnZNeY3mb">
    <mxGraphModel dx="1434" dy="-397" grid="1" gridSize="10" guides="1" tooltips="1" connect="1" arrows="1" fold="1" page="1" pageScale="1" pageWidth="827" pageHeight="1169" math="0" shadow="0">
      <root>
        <mxCell id="0" />
        <mxCell id="1" parent="0" />
        <mxCell id="GF4_05wCOyr8yyP_YJ2G-192" value="" style="rounded=1;whiteSpace=wrap;html=1;fillColor=#ffe6cc;strokeColor=#d79b00;opacity=60;" parent="1" vertex="1">
          <mxGeometry x="444.99" y="1790" width="420" height="260" as="geometry" />
        </mxCell>
        <mxCell id="GF4_05wCOyr8yyP_YJ2G-1" value="" style="shape=cube;whiteSpace=wrap;html=1;boundedLbl=1;backgroundOutline=1;darkOpacity=0.05;darkOpacity2=0.1;fillColor=#f8cecc;strokeColor=#b85450;" parent="1" vertex="1">
          <mxGeometry x="490" y="1256" width="100" height="80" as="geometry" />
        </mxCell>
        <mxCell id="GF4_05wCOyr8yyP_YJ2G-2" value="" style="shape=cube;whiteSpace=wrap;html=1;boundedLbl=1;backgroundOutline=1;darkOpacity=0.05;darkOpacity2=0.1;fillColor=#d5e8d4;strokeColor=#82b366;" parent="1" vertex="1">
          <mxGeometry x="490" y="1386" width="100" height="80" as="geometry" />
        </mxCell>
        <mxCell id="GF4_05wCOyr8yyP_YJ2G-3" value="" style="shape=cube;whiteSpace=wrap;html=1;boundedLbl=1;backgroundOutline=1;darkOpacity=0.05;darkOpacity2=0.1;fillColor=#dae8fc;strokeColor=#6c8ebf;" parent="1" vertex="1">
          <mxGeometry x="490" y="1516" width="100" height="80" as="geometry" />
        </mxCell>
        <mxCell id="GF4_05wCOyr8yyP_YJ2G-4" value="HXWXC" style="text;strokeColor=none;align=center;fillColor=none;html=1;verticalAlign=middle;whiteSpace=wrap;rounded=0;" parent="1" vertex="1">
          <mxGeometry x="510" y="1606" width="60" height="30" as="geometry" />
        </mxCell>
        <mxCell id="GF4_05wCOyr8yyP_YJ2G-5" value="HXWXC" style="text;strokeColor=none;align=center;fillColor=none;html=1;verticalAlign=middle;whiteSpace=wrap;rounded=0;" parent="1" vertex="1">
          <mxGeometry x="510" y="1466" width="60" height="30" as="geometry" />
        </mxCell>
        <mxCell id="GF4_05wCOyr8yyP_YJ2G-6" value="HXWXC" style="text;strokeColor=none;align=center;fillColor=none;html=1;verticalAlign=middle;whiteSpace=wrap;rounded=0;" parent="1" vertex="1">
          <mxGeometry x="510" y="1336" width="60" height="30" as="geometry" />
        </mxCell>
        <mxCell id="GF4_05wCOyr8yyP_YJ2G-7" value="" style="shape=cube;whiteSpace=wrap;html=1;boundedLbl=1;backgroundOutline=1;darkOpacity=0.05;darkOpacity2=0.1;gradientDirection=east;fillColor=#f5f5f5;strokeColor=#666666;gradientColor=#b3b3b3;" parent="1" vertex="1">
          <mxGeometry x="490" y="1636" width="100" height="80" as="geometry" />
        </mxCell>
        <mxCell id="GF4_05wCOyr8yyP_YJ2G-8" value="HXWXC" style="text;strokeColor=none;align=center;fillColor=none;html=1;verticalAlign=middle;whiteSpace=wrap;rounded=0;" parent="1" vertex="1">
          <mxGeometry x="510" y="1726" width="60" height="30" as="geometry" />
        </mxCell>
        <mxCell id="GF4_05wCOyr8yyP_YJ2G-9" value="&lt;font face=&quot;Times New Roman&quot;&gt;Red&lt;br&gt;Feature Map&lt;/font&gt;" style="text;strokeColor=none;align=center;fillColor=none;html=1;verticalAlign=middle;whiteSpace=wrap;rounded=0;" parent="1" vertex="1">
          <mxGeometry x="400" y="1284" width="80" height="30" as="geometry" />
        </mxCell>
        <mxCell id="GF4_05wCOyr8yyP_YJ2G-10" value="&lt;font face=&quot;Times New Roman&quot;&gt;Green&lt;br&gt;Feature Map&lt;/font&gt;" style="text;strokeColor=none;align=center;fillColor=none;html=1;verticalAlign=middle;whiteSpace=wrap;rounded=0;" parent="1" vertex="1">
          <mxGeometry x="400" y="1406" width="80" height="30" as="geometry" />
        </mxCell>
        <mxCell id="GF4_05wCOyr8yyP_YJ2G-11" value="&lt;font face=&quot;Times New Roman&quot;&gt;Blue&lt;br&gt;Feature Map&lt;/font&gt;" style="text;strokeColor=none;align=center;fillColor=none;html=1;verticalAlign=middle;whiteSpace=wrap;rounded=0;" parent="1" vertex="1">
          <mxGeometry x="400" y="1536" width="80" height="30" as="geometry" />
        </mxCell>
        <mxCell id="GF4_05wCOyr8yyP_YJ2G-12" value="&lt;font face=&quot;Times New Roman&quot;&gt;RGB&lt;br&gt;Feature Map&lt;/font&gt;" style="text;strokeColor=none;align=center;fillColor=none;html=1;verticalAlign=middle;whiteSpace=wrap;rounded=0;" parent="1" vertex="1">
          <mxGeometry x="400" y="1656" width="80" height="30" as="geometry" />
        </mxCell>
        <mxCell id="GF4_05wCOyr8yyP_YJ2G-13" style="edgeStyle=orthogonalEdgeStyle;rounded=0;orthogonalLoop=1;jettySize=auto;html=1;exitX=0;exitY=0;exitDx=100;exitDy=50;exitPerimeter=0;" parent="1" edge="1">
          <mxGeometry relative="1" as="geometry">
            <mxPoint x="640" y="1306" as="targetPoint" />
            <mxPoint x="590" y="1306" as="sourcePoint" />
          </mxGeometry>
        </mxCell>
        <mxCell id="GF4_05wCOyr8yyP_YJ2G-14" style="edgeStyle=orthogonalEdgeStyle;rounded=0;orthogonalLoop=1;jettySize=auto;html=1;" parent="1" edge="1">
          <mxGeometry relative="1" as="geometry">
            <mxPoint x="640" y="1426" as="targetPoint" />
            <mxPoint x="590" y="1426" as="sourcePoint" />
          </mxGeometry>
        </mxCell>
        <mxCell id="GF4_05wCOyr8yyP_YJ2G-15" style="edgeStyle=orthogonalEdgeStyle;rounded=0;orthogonalLoop=1;jettySize=auto;html=1;exitX=0;exitY=0;exitDx=100;exitDy=50;exitPerimeter=0;" parent="1" edge="1">
          <mxGeometry relative="1" as="geometry">
            <mxPoint x="640" y="1566" as="targetPoint" />
            <mxPoint x="590" y="1566" as="sourcePoint" />
          </mxGeometry>
        </mxCell>
        <mxCell id="GF4_05wCOyr8yyP_YJ2G-19" style="edgeStyle=orthogonalEdgeStyle;rounded=0;orthogonalLoop=1;jettySize=auto;html=1;exitX=0;exitY=0;exitDx=100;exitDy=50;exitPerimeter=0;" parent="1" edge="1">
          <mxGeometry relative="1" as="geometry">
            <mxPoint x="640" y="1686" as="targetPoint" />
            <mxPoint x="590" y="1686" as="sourcePoint" />
          </mxGeometry>
        </mxCell>
        <mxCell id="GF4_05wCOyr8yyP_YJ2G-21" value="&lt;font face=&quot;Times New Roman&quot; style=&quot;font-size: 24px;&quot;&gt;Self-&lt;br&gt;Attention&lt;br&gt;Fusion&lt;br&gt;Module&lt;br&gt;&lt;/font&gt;" style="rounded=1;whiteSpace=wrap;html=1;fillColor=#b0e3e6;strokeColor=none;dashed=1;opacity=80;" parent="1" vertex="1">
          <mxGeometry x="640" y="1274" width="140" height="420" as="geometry" />
        </mxCell>
        <mxCell id="GF4_05wCOyr8yyP_YJ2G-53" value="" style="shape=cube;whiteSpace=wrap;html=1;boundedLbl=1;backgroundOutline=1;darkOpacity=0.05;darkOpacity2=0.1;fillColor=#cbc8f4;strokeColor=#6c8ebf;gradientDirection=west;gradientColor=#7c72cb;" parent="1" vertex="1">
          <mxGeometry x="828" y="1602.5" width="79" height="63" as="geometry" />
        </mxCell>
        <mxCell id="GF4_05wCOyr8yyP_YJ2G-54" value="" style="shape=cube;whiteSpace=wrap;html=1;boundedLbl=1;backgroundOutline=1;darkOpacity=0.05;darkOpacity2=0.1;fillColor=#d5e8d4;strokeColor=#82b366;gradientDirection=west;gradientColor=#48db65;" parent="1" vertex="1">
          <mxGeometry x="828" y="1466.5" width="79" height="63" as="geometry" />
        </mxCell>
        <mxCell id="GF4_05wCOyr8yyP_YJ2G-55" value="" style="endArrow=classic;html=1;rounded=0;elbow=vertical;exitX=1;exitY=0.5;exitDx=0;exitDy=0;" parent="1" edge="1">
          <mxGeometry width="50" height="50" relative="1" as="geometry">
            <mxPoint x="781" y="1311.5" as="sourcePoint" />
            <mxPoint x="827" y="1311.5" as="targetPoint" />
          </mxGeometry>
        </mxCell>
        <mxCell id="GF4_05wCOyr8yyP_YJ2G-56" value="" style="endArrow=classic;html=1;rounded=0;elbow=vertical;exitX=1;exitY=0.5;exitDx=0;exitDy=0;" parent="1" edge="1">
          <mxGeometry width="50" height="50" relative="1" as="geometry">
            <mxPoint x="780" y="1365.5" as="sourcePoint" />
            <mxPoint x="827" y="1365.5" as="targetPoint" />
          </mxGeometry>
        </mxCell>
        <mxCell id="GF4_05wCOyr8yyP_YJ2G-57" value="" style="endArrow=classic;html=1;rounded=0;elbow=vertical;" parent="1" edge="1">
          <mxGeometry width="50" height="50" relative="1" as="geometry">
            <mxPoint x="783" y="1430" as="sourcePoint" />
            <mxPoint x="827" y="1430.5" as="targetPoint" />
          </mxGeometry>
        </mxCell>
        <mxCell id="GF4_05wCOyr8yyP_YJ2G-58" value="" style="endArrow=classic;html=1;rounded=0;elbow=vertical;exitX=1;exitY=0.5;exitDx=0;exitDy=0;" parent="1" edge="1">
          <mxGeometry width="50" height="50" relative="1" as="geometry">
            <mxPoint x="781" y="1482.5" as="sourcePoint" />
            <mxPoint x="828" y="1482.5" as="targetPoint" />
          </mxGeometry>
        </mxCell>
        <mxCell id="GF4_05wCOyr8yyP_YJ2G-59" value="" style="endArrow=classic;html=1;rounded=0;elbow=vertical;exitX=1;exitY=0.5;exitDx=0;exitDy=0;" parent="1" edge="1">
          <mxGeometry width="50" height="50" relative="1" as="geometry">
            <mxPoint x="781" y="1565.5" as="sourcePoint" />
            <mxPoint x="827" y="1565.5" as="targetPoint" />
          </mxGeometry>
        </mxCell>
        <mxCell id="GF4_05wCOyr8yyP_YJ2G-60" value="" style="endArrow=classic;html=1;rounded=0;elbow=vertical;exitX=1;exitY=0.5;exitDx=0;exitDy=0;" parent="1" edge="1">
          <mxGeometry width="50" height="50" relative="1" as="geometry">
            <mxPoint x="781" y="1620.5" as="sourcePoint" />
            <mxPoint x="827" y="1620.5" as="targetPoint" />
          </mxGeometry>
        </mxCell>
        <mxCell id="GF4_05wCOyr8yyP_YJ2G-61" value="" style="shape=cube;whiteSpace=wrap;html=1;boundedLbl=1;backgroundOutline=1;darkOpacity=0.05;darkOpacity2=0.1;fillColor=#f8cecc;strokeColor=#b85450;gradientColor=#ea6b66;gradientDirection=east;" parent="1" vertex="1">
          <mxGeometry x="828" y="1282.5" width="79" height="63" as="geometry" />
        </mxCell>
        <mxCell id="GF4_05wCOyr8yyP_YJ2G-62" value="" style="shape=cube;whiteSpace=wrap;html=1;boundedLbl=1;backgroundOutline=1;darkOpacity=0.05;darkOpacity2=0.1;fillColor=#cbc8f4;strokeColor=#6c8ebf;gradientDirection=east;gradientColor=#7c72cb;" parent="1" vertex="1">
          <mxGeometry x="828" y="1536" width="79" height="63" as="geometry" />
        </mxCell>
        <mxCell id="GF4_05wCOyr8yyP_YJ2G-63" value="" style="shape=cube;whiteSpace=wrap;html=1;boundedLbl=1;backgroundOutline=1;darkOpacity=0.05;darkOpacity2=0.1;fillColor=#d5e8d4;strokeColor=#82b366;gradientDirection=east;gradientColor=#48db65;" parent="1" vertex="1">
          <mxGeometry x="828" y="1406.5" width="79" height="63" as="geometry" />
        </mxCell>
        <mxCell id="GF4_05wCOyr8yyP_YJ2G-64" value="" style="shape=cube;whiteSpace=wrap;html=1;boundedLbl=1;backgroundOutline=1;darkOpacity=0.05;darkOpacity2=0.1;fillColor=#f8cecc;strokeColor=#b85450;gradientColor=#ea6b66;gradientDirection=west;" parent="1" vertex="1">
          <mxGeometry x="828" y="1345.5" width="79" height="63" as="geometry" />
        </mxCell>
        <mxCell id="GF4_05wCOyr8yyP_YJ2G-65" value="" style="endArrow=classic;html=1;rounded=0;elbow=vertical;exitX=0;exitY=0;exitDx=79;exitDy=41.5;exitPerimeter=0;" parent="1" source="GF4_05wCOyr8yyP_YJ2G-61" edge="1">
          <mxGeometry width="50" height="50" relative="1" as="geometry">
            <mxPoint x="997" y="1355.5" as="sourcePoint" />
            <mxPoint x="947" y="1324.5" as="targetPoint" />
          </mxGeometry>
        </mxCell>
        <mxCell id="GF4_05wCOyr8yyP_YJ2G-66" value="" style="endArrow=classic;html=1;rounded=0;elbow=vertical;exitX=0;exitY=0;exitDx=79;exitDy=41.5;exitPerimeter=0;" parent="1" edge="1">
          <mxGeometry width="50" height="50" relative="1" as="geometry">
            <mxPoint x="908" y="1505.5" as="sourcePoint" />
            <mxPoint x="948" y="1505.5" as="targetPoint" />
          </mxGeometry>
        </mxCell>
        <mxCell id="GF4_05wCOyr8yyP_YJ2G-67" value="" style="endArrow=classic;html=1;rounded=0;elbow=vertical;exitX=0;exitY=0;exitDx=79;exitDy=41.5;exitPerimeter=0;" parent="1" edge="1">
          <mxGeometry width="50" height="50" relative="1" as="geometry">
            <mxPoint x="908" y="1446.5" as="sourcePoint" />
            <mxPoint x="948" y="1446.5" as="targetPoint" />
          </mxGeometry>
        </mxCell>
        <mxCell id="GF4_05wCOyr8yyP_YJ2G-68" value="" style="endArrow=classic;html=1;rounded=0;elbow=vertical;exitX=0;exitY=0;exitDx=79;exitDy=41.5;exitPerimeter=0;" parent="1" source="GF4_05wCOyr8yyP_YJ2G-64" edge="1">
          <mxGeometry width="50" height="50" relative="1" as="geometry">
            <mxPoint x="937" y="1354.5" as="sourcePoint" />
            <mxPoint x="947" y="1387.5" as="targetPoint" />
          </mxGeometry>
        </mxCell>
        <mxCell id="GF4_05wCOyr8yyP_YJ2G-69" value="" style="endArrow=classic;html=1;rounded=0;elbow=vertical;exitX=0;exitY=0;exitDx=79;exitDy=41.5;exitPerimeter=0;" parent="1" edge="1">
          <mxGeometry width="50" height="50" relative="1" as="geometry">
            <mxPoint x="908" y="1645.5" as="sourcePoint" />
            <mxPoint x="948" y="1645.5" as="targetPoint" />
          </mxGeometry>
        </mxCell>
        <mxCell id="GF4_05wCOyr8yyP_YJ2G-70" value="" style="endArrow=classic;html=1;rounded=0;elbow=vertical;exitX=0;exitY=0;exitDx=79;exitDy=41.5;exitPerimeter=0;" parent="1" source="GF4_05wCOyr8yyP_YJ2G-62" edge="1">
          <mxGeometry width="50" height="50" relative="1" as="geometry">
            <mxPoint x="957" y="1374.5" as="sourcePoint" />
            <mxPoint x="947" y="1577.5" as="targetPoint" />
          </mxGeometry>
        </mxCell>
        <mxCell id="GF4_05wCOyr8yyP_YJ2G-71" value="Global Avarage&lt;br&gt;Pooling" style="text;strokeColor=none;align=center;fillColor=none;html=1;verticalAlign=middle;whiteSpace=wrap;rounded=0;" parent="1" vertex="1">
          <mxGeometry x="907" y="1331.5" width="60" height="30" as="geometry" />
        </mxCell>
        <mxCell id="GF4_05wCOyr8yyP_YJ2G-72" value="Global Avarage&lt;br&gt;Pooling" style="text;strokeColor=none;align=center;fillColor=none;html=1;verticalAlign=middle;whiteSpace=wrap;rounded=0;" parent="1" vertex="1">
          <mxGeometry x="907" y="1452.5" width="60" height="30" as="geometry" />
        </mxCell>
        <mxCell id="GF4_05wCOyr8yyP_YJ2G-73" value="Global Avarage&lt;br&gt;Pooling" style="text;strokeColor=none;align=center;fillColor=none;html=1;verticalAlign=middle;whiteSpace=wrap;rounded=0;" parent="1" vertex="1">
          <mxGeometry x="907" y="1515.5" width="60" height="30" as="geometry" />
        </mxCell>
        <mxCell id="GF4_05wCOyr8yyP_YJ2G-74" value="Global Avarage&lt;br&gt;Pooling" style="text;strokeColor=none;align=center;fillColor=none;html=1;verticalAlign=middle;whiteSpace=wrap;rounded=0;" parent="1" vertex="1">
          <mxGeometry x="907" y="1585.5" width="60" height="30" as="geometry" />
        </mxCell>
        <mxCell id="GF4_05wCOyr8yyP_YJ2G-75" value="Global Avarage&lt;br&gt;Pooling" style="text;strokeColor=none;align=center;fillColor=none;html=1;verticalAlign=middle;whiteSpace=wrap;rounded=0;" parent="1" vertex="1">
          <mxGeometry x="907" y="1655.5" width="60" height="30" as="geometry" />
        </mxCell>
        <mxCell id="GF4_05wCOyr8yyP_YJ2G-76" value="Global Avarage&lt;br&gt;Pooling" style="text;strokeColor=none;align=center;fillColor=none;html=1;verticalAlign=middle;whiteSpace=wrap;rounded=0;" parent="1" vertex="1">
          <mxGeometry x="907" y="1395.5" width="60" height="30" as="geometry" />
        </mxCell>
        <mxCell id="GF4_05wCOyr8yyP_YJ2G-77" value="" style="shape=cube;whiteSpace=wrap;html=1;boundedLbl=1;backgroundOutline=1;darkOpacity=0.05;darkOpacity2=0.1;fillColor=#f8cecc;strokeColor=#b85450;size=10;gradientColor=#ec7979;gradientDirection=east;" parent="1" vertex="1">
          <mxGeometry x="957.5" y="1308.5" width="90" height="30" as="geometry" />
        </mxCell>
        <mxCell id="GF4_05wCOyr8yyP_YJ2G-78" value="" style="shape=cube;whiteSpace=wrap;html=1;boundedLbl=1;backgroundOutline=1;darkOpacity=0.05;darkOpacity2=0.1;fillColor=#f8cecc;strokeColor=#b85450;size=10;gradientColor=#e46c6c;gradientDirection=west;" parent="1" vertex="1">
          <mxGeometry x="957.5" y="1375.5" width="90" height="30" as="geometry" />
        </mxCell>
        <mxCell id="GF4_05wCOyr8yyP_YJ2G-79" value="" style="shape=cube;whiteSpace=wrap;html=1;boundedLbl=1;backgroundOutline=1;darkOpacity=0.05;darkOpacity2=0.1;fillColor=#f8cecc;strokeColor=#51b862;size=10;gradientColor=#81ec79;gradientDirection=east;" parent="1" vertex="1">
          <mxGeometry x="958" y="1432.5" width="90" height="30" as="geometry" />
        </mxCell>
        <mxCell id="GF4_05wCOyr8yyP_YJ2G-80" value="" style="shape=cube;whiteSpace=wrap;html=1;boundedLbl=1;backgroundOutline=1;darkOpacity=0.05;darkOpacity2=0.1;fillColor=#f8cecc;strokeColor=#51b862;size=10;gradientColor=#6fdc81;gradientDirection=west;" parent="1" vertex="1">
          <mxGeometry x="957.5" y="1495.5" width="90" height="30" as="geometry" />
        </mxCell>
        <mxCell id="GF4_05wCOyr8yyP_YJ2G-81" value="" style="shape=cube;whiteSpace=wrap;html=1;boundedLbl=1;backgroundOutline=1;darkOpacity=0.05;darkOpacity2=0.1;fillColor=#f8cecc;strokeColor=#6d51b8;size=10;gradientColor=#7996ec;gradientDirection=east;" parent="1" vertex="1">
          <mxGeometry x="958" y="1563.5" width="90" height="30" as="geometry" />
        </mxCell>
        <mxCell id="GF4_05wCOyr8yyP_YJ2G-82" value="" style="shape=cube;whiteSpace=wrap;html=1;boundedLbl=1;backgroundOutline=1;darkOpacity=0.05;darkOpacity2=0.1;fillColor=#f8cecc;strokeColor=#5351b8;size=10;gradientColor=#7978ba;gradientDirection=west;" parent="1" vertex="1">
          <mxGeometry x="957.5" y="1635.5" width="90" height="30" as="geometry" />
        </mxCell>
        <mxCell id="GF4_05wCOyr8yyP_YJ2G-83" value="" style="endArrow=classic;html=1;rounded=0;elbow=vertical;exitX=0;exitY=0;exitDx=79;exitDy=41.5;exitPerimeter=0;" parent="1" edge="1">
          <mxGeometry width="50" height="50" relative="1" as="geometry">
            <mxPoint x="1048" y="1327.5" as="sourcePoint" />
            <mxPoint x="1088" y="1328" as="targetPoint" />
          </mxGeometry>
        </mxCell>
        <mxCell id="GF4_05wCOyr8yyP_YJ2G-84" value="" style="endArrow=classic;html=1;rounded=0;elbow=vertical;exitX=0;exitY=0;exitDx=79;exitDy=41.5;exitPerimeter=0;" parent="1" edge="1">
          <mxGeometry width="50" height="50" relative="1" as="geometry">
            <mxPoint x="1049" y="1509" as="sourcePoint" />
            <mxPoint x="1089" y="1509" as="targetPoint" />
          </mxGeometry>
        </mxCell>
        <mxCell id="GF4_05wCOyr8yyP_YJ2G-85" value="" style="endArrow=classic;html=1;rounded=0;elbow=vertical;exitX=0;exitY=0;exitDx=79;exitDy=41.5;exitPerimeter=0;" parent="1" edge="1">
          <mxGeometry width="50" height="50" relative="1" as="geometry">
            <mxPoint x="1049" y="1450" as="sourcePoint" />
            <mxPoint x="1089" y="1450" as="targetPoint" />
          </mxGeometry>
        </mxCell>
        <mxCell id="GF4_05wCOyr8yyP_YJ2G-86" value="" style="endArrow=classic;html=1;rounded=0;elbow=vertical;exitX=0;exitY=0;exitDx=79;exitDy=41.5;exitPerimeter=0;" parent="1" edge="1">
          <mxGeometry width="50" height="50" relative="1" as="geometry">
            <mxPoint x="1048" y="1390.5" as="sourcePoint" />
            <mxPoint x="1088" y="1391" as="targetPoint" />
          </mxGeometry>
        </mxCell>
        <mxCell id="GF4_05wCOyr8yyP_YJ2G-87" value="" style="endArrow=classic;html=1;rounded=0;elbow=vertical;exitX=0;exitY=0;exitDx=79;exitDy=41.5;exitPerimeter=0;" parent="1" edge="1">
          <mxGeometry width="50" height="50" relative="1" as="geometry">
            <mxPoint x="1049" y="1649" as="sourcePoint" />
            <mxPoint x="1089" y="1649" as="targetPoint" />
          </mxGeometry>
        </mxCell>
        <mxCell id="GF4_05wCOyr8yyP_YJ2G-88" value="" style="endArrow=classic;html=1;rounded=0;elbow=vertical;exitX=0;exitY=0;exitDx=79;exitDy=41.5;exitPerimeter=0;" parent="1" edge="1">
          <mxGeometry width="50" height="50" relative="1" as="geometry">
            <mxPoint x="1048" y="1581.5" as="sourcePoint" />
            <mxPoint x="1088" y="1581" as="targetPoint" />
          </mxGeometry>
        </mxCell>
        <mxCell id="GF4_05wCOyr8yyP_YJ2G-93" value="FC" style="text;strokeColor=none;align=center;fillColor=none;html=1;verticalAlign=middle;whiteSpace=wrap;rounded=0;" parent="1" vertex="1">
          <mxGeometry x="1040" y="1395.5" width="60" height="30" as="geometry" />
        </mxCell>
        <mxCell id="GF4_05wCOyr8yyP_YJ2G-100" value="FC" style="text;strokeColor=none;align=center;fillColor=none;html=1;verticalAlign=middle;whiteSpace=wrap;rounded=0;" parent="1" vertex="1">
          <mxGeometry x="1040" y="1506" width="60" height="30" as="geometry" />
        </mxCell>
        <mxCell id="GF4_05wCOyr8yyP_YJ2G-101" value="FC" style="text;strokeColor=none;align=center;fillColor=none;html=1;verticalAlign=middle;whiteSpace=wrap;rounded=0;" parent="1" vertex="1">
          <mxGeometry x="1038.5" y="1452.5" width="60" height="30" as="geometry" />
        </mxCell>
        <mxCell id="GF4_05wCOyr8yyP_YJ2G-102" value="FC" style="text;strokeColor=none;align=center;fillColor=none;html=1;verticalAlign=middle;whiteSpace=wrap;rounded=0;" parent="1" vertex="1">
          <mxGeometry x="1039" y="1324" width="60" height="30" as="geometry" />
        </mxCell>
        <mxCell id="GF4_05wCOyr8yyP_YJ2G-103" value="FC" style="text;strokeColor=none;align=center;fillColor=none;html=1;verticalAlign=middle;whiteSpace=wrap;rounded=0;" parent="1" vertex="1">
          <mxGeometry x="1041" y="1649" width="60" height="30" as="geometry" />
        </mxCell>
        <mxCell id="GF4_05wCOyr8yyP_YJ2G-104" value="FC" style="text;strokeColor=none;align=center;fillColor=none;html=1;verticalAlign=middle;whiteSpace=wrap;rounded=0;" parent="1" vertex="1">
          <mxGeometry x="1039" y="1579" width="60" height="30" as="geometry" />
        </mxCell>
        <mxCell id="GF4_05wCOyr8yyP_YJ2G-105" value="HXWXC" style="text;strokeColor=none;align=center;fillColor=none;html=1;verticalAlign=middle;whiteSpace=wrap;rounded=0;" parent="1" vertex="1">
          <mxGeometry x="846" y="1679" width="60" height="30" as="geometry" />
        </mxCell>
        <mxCell id="GF4_05wCOyr8yyP_YJ2G-106" value="1X1XC" style="text;strokeColor=none;align=center;fillColor=none;html=1;verticalAlign=middle;whiteSpace=wrap;rounded=0;" parent="1" vertex="1">
          <mxGeometry x="974" y="1679" width="60" height="30" as="geometry" />
        </mxCell>
        <mxCell id="GF4_05wCOyr8yyP_YJ2G-115" value="" style="group;rotation=-90;" parent="1" vertex="1" connectable="0">
          <mxGeometry x="1125" y="1281" width="67.17" height="110" as="geometry" />
        </mxCell>
        <mxCell id="GF4_05wCOyr8yyP_YJ2G-108" value="" style="rounded=0;whiteSpace=wrap;html=1;rotation=0;fillColor=#f8cecc;strokeColor=#b85450;" parent="GF4_05wCOyr8yyP_YJ2G-115" vertex="1">
          <mxGeometry x="-33.58" y="33.92" width="100.75" height="26.08" as="geometry" />
        </mxCell>
        <mxCell id="GF4_05wCOyr8yyP_YJ2G-107" value="" style="ellipse;whiteSpace=wrap;html=1;aspect=fixed;fillColor=#f8cecc;strokeColor=#b85450;rotation=-90;" parent="GF4_05wCOyr8yyP_YJ2G-115" vertex="1">
          <mxGeometry x="-32.742761225346094" y="36.666666666666664" width="23.507623443838224" height="23.507623443838224" as="geometry" />
        </mxCell>
        <mxCell id="GF4_05wCOyr8yyP_YJ2G-109" value="" style="ellipse;whiteSpace=wrap;html=1;aspect=fixed;fillColor=#f8cecc;strokeColor=#b85450;rotation=-90;" parent="GF4_05wCOyr8yyP_YJ2G-115" vertex="1">
          <mxGeometry x="19.309833543152827" y="35.75" width="23.507623443838224" height="23.507623443838224" as="geometry" />
        </mxCell>
        <mxCell id="GF4_05wCOyr8yyP_YJ2G-110" value="" style="ellipse;whiteSpace=wrap;html=1;aspect=fixed;fillColor=#f8cecc;strokeColor=#b85450;rotation=-90;" parent="GF4_05wCOyr8yyP_YJ2G-115" vertex="1">
          <mxGeometry x="43.65701496712813" y="35.75" width="23.507623443838224" height="23.507623443838224" as="geometry" />
        </mxCell>
        <mxCell id="GF4_05wCOyr8yyP_YJ2G-113" value="&lt;font style=&quot;font-size: 24px;&quot; face=&quot;Times New Roman&quot;&gt;...&lt;/font&gt;" style="text;strokeColor=none;align=center;fillColor=none;html=1;verticalAlign=middle;whiteSpace=wrap;rounded=0;rotation=-360;" parent="GF4_05wCOyr8yyP_YJ2G-115" vertex="1">
          <mxGeometry x="-18.470275563015747" y="32.08333333333333" width="50.37347880822476" height="23.375" as="geometry" />
        </mxCell>
        <mxCell id="GF4_05wCOyr8yyP_YJ2G-173" value="1X1XN" style="text;strokeColor=none;align=center;fillColor=none;html=1;verticalAlign=middle;whiteSpace=wrap;rounded=0;" parent="1" vertex="1">
          <mxGeometry x="1110" y="1679" width="60" height="30" as="geometry" />
        </mxCell>
        <mxCell id="GF4_05wCOyr8yyP_YJ2G-188" style="edgeStyle=orthogonalEdgeStyle;rounded=1;orthogonalLoop=1;jettySize=auto;html=1;elbow=vertical;strokeWidth=2;dashed=1;entryX=0;entryY=0.5;entryDx=0;entryDy=0;fillColor=#bac8d3;strokeColor=#23445d;" parent="1" target="GF4_05wCOyr8yyP_YJ2G-187" edge="1">
          <mxGeometry relative="1" as="geometry">
            <mxPoint x="1298" y="1658" as="sourcePoint" />
            <mxPoint x="1070" y="1770" as="targetPoint" />
            <Array as="points">
              <mxPoint x="1298" y="1750" />
              <mxPoint x="1107" y="1750" />
            </Array>
          </mxGeometry>
        </mxCell>
        <mxCell id="GF4_05wCOyr8yyP_YJ2G-189" style="edgeStyle=orthogonalEdgeStyle;rounded=1;orthogonalLoop=1;jettySize=auto;html=1;elbow=vertical;dashed=1;strokeWidth=2;fillColor=#bac8d3;strokeColor=#23445d;" parent="1" target="GF4_05wCOyr8yyP_YJ2G-192" edge="1">
          <mxGeometry relative="1" as="geometry">
            <mxPoint x="1298" y="1650" as="sourcePoint" />
            <Array as="points">
              <mxPoint x="1298" y="1750" />
              <mxPoint x="752" y="1750" />
            </Array>
          </mxGeometry>
        </mxCell>
        <mxCell id="GF4_05wCOyr8yyP_YJ2G-287" style="edgeStyle=orthogonalEdgeStyle;rounded=1;orthogonalLoop=1;jettySize=auto;html=1;exitX=1;exitY=0.5;exitDx=0;exitDy=0;elbow=vertical;dashed=1;endArrow=none;endFill=0;entryX=1;entryY=0.5;entryDx=0;entryDy=0;strokeWidth=2;" parent="1" source="GF4_05wCOyr8yyP_YJ2G-194" target="GF4_05wCOyr8yyP_YJ2G-199" edge="1">
          <mxGeometry relative="1" as="geometry">
            <mxPoint x="1380" y="1390" as="targetPoint" />
            <Array as="points">
              <mxPoint x="1298" y="1330" />
              <mxPoint x="1298" y="1649" />
            </Array>
          </mxGeometry>
        </mxCell>
        <mxCell id="GF4_05wCOyr8yyP_YJ2G-194" value="&lt;font style=&quot;font-size: 14px;&quot;&gt;X&lt;/font&gt;" style="ellipse;whiteSpace=wrap;html=1;aspect=fixed;" parent="1" vertex="1">
          <mxGeometry x="1227" y="1315" width="30" height="30" as="geometry" />
        </mxCell>
        <mxCell id="GF4_05wCOyr8yyP_YJ2G-195" value="&lt;font style=&quot;font-size: 14px;&quot;&gt;X&lt;/font&gt;" style="ellipse;whiteSpace=wrap;html=1;aspect=fixed;" parent="1" vertex="1">
          <mxGeometry x="1227" y="1376.79" width="30" height="30" as="geometry" />
        </mxCell>
        <mxCell id="GF4_05wCOyr8yyP_YJ2G-196" value="&lt;font style=&quot;font-size: 14px;&quot;&gt;X&lt;/font&gt;" style="ellipse;whiteSpace=wrap;html=1;aspect=fixed;" parent="1" vertex="1">
          <mxGeometry x="1226" y="1434" width="30" height="30" as="geometry" />
        </mxCell>
        <mxCell id="GF4_05wCOyr8yyP_YJ2G-197" value="&lt;font style=&quot;font-size: 14px;&quot;&gt;X&lt;/font&gt;" style="ellipse;whiteSpace=wrap;html=1;aspect=fixed;" parent="1" vertex="1">
          <mxGeometry x="1227" y="1491" width="30" height="30" as="geometry" />
        </mxCell>
        <mxCell id="GF4_05wCOyr8yyP_YJ2G-198" value="&lt;font style=&quot;font-size: 14px;&quot;&gt;X&lt;/font&gt;" style="ellipse;whiteSpace=wrap;html=1;aspect=fixed;" parent="1" vertex="1">
          <mxGeometry x="1226" y="1564" width="30" height="30" as="geometry" />
        </mxCell>
        <mxCell id="GF4_05wCOyr8yyP_YJ2G-199" value="&lt;font style=&quot;font-size: 14px;&quot;&gt;X&lt;/font&gt;" style="ellipse;whiteSpace=wrap;html=1;aspect=fixed;" parent="1" vertex="1">
          <mxGeometry x="1226" y="1634" width="30" height="30" as="geometry" />
        </mxCell>
        <mxCell id="GF4_05wCOyr8yyP_YJ2G-203" value="" style="endArrow=classic;html=1;rounded=0;curved=1;elbow=vertical;exitX=0.5;exitY=1;exitDx=0;exitDy=0;" parent="1" source="GF4_05wCOyr8yyP_YJ2G-110" edge="1">
          <mxGeometry width="50" height="50" relative="1" as="geometry">
            <mxPoint x="1400" y="1420" as="sourcePoint" />
            <mxPoint x="1226" y="1331" as="targetPoint" />
          </mxGeometry>
        </mxCell>
        <mxCell id="GF4_05wCOyr8yyP_YJ2G-205" value="" style="endArrow=classic;html=1;rounded=0;curved=1;elbow=vertical;exitX=1;exitY=0.5;exitDx=0;exitDy=0;entryX=0;entryY=0.5;entryDx=0;entryDy=0;" parent="1" source="GF4_05wCOyr8yyP_YJ2G-150" target="GF4_05wCOyr8yyP_YJ2G-195" edge="1">
          <mxGeometry width="50" height="50" relative="1" as="geometry">
            <mxPoint x="1202" y="1339" as="sourcePoint" />
            <mxPoint x="1236" y="1341" as="targetPoint" />
          </mxGeometry>
        </mxCell>
        <mxCell id="GF4_05wCOyr8yyP_YJ2G-206" value="" style="endArrow=classic;html=1;rounded=0;curved=1;elbow=vertical;exitX=1;exitY=0.5;exitDx=0;exitDy=0;entryX=0;entryY=0.5;entryDx=0;entryDy=0;" parent="1" source="GF4_05wCOyr8yyP_YJ2G-143" target="GF4_05wCOyr8yyP_YJ2G-196" edge="1">
          <mxGeometry width="50" height="50" relative="1" as="geometry">
            <mxPoint x="1212" y="1349" as="sourcePoint" />
            <mxPoint x="1246" y="1351" as="targetPoint" />
          </mxGeometry>
        </mxCell>
        <mxCell id="GF4_05wCOyr8yyP_YJ2G-207" value="" style="endArrow=classic;html=1;rounded=0;curved=1;elbow=vertical;exitX=0.5;exitY=1;exitDx=0;exitDy=0;entryX=0;entryY=0.5;entryDx=0;entryDy=0;" parent="1" source="GF4_05wCOyr8yyP_YJ2G-126" target="GF4_05wCOyr8yyP_YJ2G-197" edge="1">
          <mxGeometry width="50" height="50" relative="1" as="geometry">
            <mxPoint x="1200" y="1500" as="sourcePoint" />
            <mxPoint x="1256" y="1361" as="targetPoint" />
          </mxGeometry>
        </mxCell>
        <mxCell id="GF4_05wCOyr8yyP_YJ2G-208" value="" style="endArrow=classic;html=1;rounded=0;curved=1;elbow=vertical;exitX=0.5;exitY=1;exitDx=0;exitDy=0;entryX=0;entryY=0.5;entryDx=0;entryDy=0;" parent="1" source="GF4_05wCOyr8yyP_YJ2G-167" target="GF4_05wCOyr8yyP_YJ2G-198" edge="1">
          <mxGeometry width="50" height="50" relative="1" as="geometry">
            <mxPoint x="1200" y="1580" as="sourcePoint" />
            <mxPoint x="1266" y="1371" as="targetPoint" />
          </mxGeometry>
        </mxCell>
        <mxCell id="GF4_05wCOyr8yyP_YJ2G-209" value="" style="endArrow=classic;html=1;rounded=0;curved=1;elbow=vertical;exitX=0.5;exitY=1;exitDx=0;exitDy=0;entryX=0;entryY=0.5;entryDx=0;entryDy=0;" parent="1" source="GF4_05wCOyr8yyP_YJ2G-138" target="GF4_05wCOyr8yyP_YJ2G-199" edge="1">
          <mxGeometry width="50" height="50" relative="1" as="geometry">
            <mxPoint x="1242" y="1379" as="sourcePoint" />
            <mxPoint x="1276" y="1381" as="targetPoint" />
          </mxGeometry>
        </mxCell>
        <mxCell id="GF4_05wCOyr8yyP_YJ2G-226" value="" style="group" parent="1" vertex="1" connectable="0">
          <mxGeometry x="1230" y="1284" width="60" height="38" as="geometry" />
        </mxCell>
        <mxCell id="GF4_05wCOyr8yyP_YJ2G-210" style="edgeStyle=orthogonalEdgeStyle;curved=1;rounded=0;orthogonalLoop=1;jettySize=auto;html=1;elbow=vertical;" parent="GF4_05wCOyr8yyP_YJ2G-226" edge="1">
          <mxGeometry relative="1" as="geometry">
            <mxPoint x="24" y="38" as="targetPoint" />
            <mxPoint x="45" y="8" as="sourcePoint" />
            <Array as="points">
              <mxPoint x="45" y="38" />
            </Array>
          </mxGeometry>
        </mxCell>
        <mxCell id="GF4_05wCOyr8yyP_YJ2G-217" value="&lt;font style=&quot;font-size: 24px;&quot; face=&quot;Times New Roman&quot;&gt;α&lt;sub style=&quot;&quot;&gt;1&lt;/sub&gt;&lt;/font&gt;" style="text;strokeColor=none;align=center;fillColor=none;html=1;verticalAlign=middle;whiteSpace=wrap;rounded=0;" parent="GF4_05wCOyr8yyP_YJ2G-226" vertex="1">
          <mxGeometry width="60" height="30" as="geometry" />
        </mxCell>
        <mxCell id="GF4_05wCOyr8yyP_YJ2G-227" value="" style="group" parent="1" vertex="1" connectable="0">
          <mxGeometry x="1230" y="1460" width="60" height="38" as="geometry" />
        </mxCell>
        <mxCell id="GF4_05wCOyr8yyP_YJ2G-228" style="edgeStyle=orthogonalEdgeStyle;curved=1;rounded=0;orthogonalLoop=1;jettySize=auto;html=1;elbow=vertical;" parent="GF4_05wCOyr8yyP_YJ2G-227" edge="1">
          <mxGeometry relative="1" as="geometry">
            <mxPoint x="24" y="38" as="targetPoint" />
            <mxPoint x="45" y="8" as="sourcePoint" />
            <Array as="points">
              <mxPoint x="45" y="38" />
            </Array>
          </mxGeometry>
        </mxCell>
        <mxCell id="GF4_05wCOyr8yyP_YJ2G-229" value="&lt;font face=&quot;Times New Roman&quot;&gt;&lt;span style=&quot;font-size: 24px;&quot;&gt;β&lt;sub&gt;2&lt;/sub&gt;&lt;/span&gt;&lt;/font&gt;" style="text;strokeColor=none;align=center;fillColor=none;html=1;verticalAlign=middle;whiteSpace=wrap;rounded=0;" parent="GF4_05wCOyr8yyP_YJ2G-227" vertex="1">
          <mxGeometry width="60" height="30" as="geometry" />
        </mxCell>
        <mxCell id="GF4_05wCOyr8yyP_YJ2G-230" value="" style="group" parent="1" vertex="1" connectable="0">
          <mxGeometry x="1227" y="1395.5" width="60" height="38" as="geometry" />
        </mxCell>
        <mxCell id="GF4_05wCOyr8yyP_YJ2G-231" style="edgeStyle=orthogonalEdgeStyle;curved=1;rounded=0;orthogonalLoop=1;jettySize=auto;html=1;elbow=vertical;" parent="GF4_05wCOyr8yyP_YJ2G-230" edge="1">
          <mxGeometry relative="1" as="geometry">
            <mxPoint x="24" y="38" as="targetPoint" />
            <mxPoint x="45" y="8" as="sourcePoint" />
            <Array as="points">
              <mxPoint x="45" y="38" />
            </Array>
          </mxGeometry>
        </mxCell>
        <mxCell id="GF4_05wCOyr8yyP_YJ2G-232" value="&lt;font style=&quot;font-size: 24px;&quot; face=&quot;Times New Roman&quot;&gt;α&lt;/font&gt;&lt;font style=&quot;font-size: 20px;&quot; face=&quot;Times New Roman&quot;&gt;&lt;sub&gt;2&lt;/sub&gt;&lt;/font&gt;" style="text;strokeColor=none;align=center;fillColor=none;html=1;verticalAlign=middle;whiteSpace=wrap;rounded=0;" parent="GF4_05wCOyr8yyP_YJ2G-230" vertex="1">
          <mxGeometry x="-1" width="60" height="30" as="geometry" />
        </mxCell>
        <mxCell id="GF4_05wCOyr8yyP_YJ2G-238" value="" style="group" parent="1" vertex="1" connectable="0">
          <mxGeometry x="1230" y="1530" width="60" height="38" as="geometry" />
        </mxCell>
        <mxCell id="GF4_05wCOyr8yyP_YJ2G-239" style="edgeStyle=orthogonalEdgeStyle;curved=1;rounded=0;orthogonalLoop=1;jettySize=auto;html=1;elbow=vertical;" parent="GF4_05wCOyr8yyP_YJ2G-238" edge="1">
          <mxGeometry relative="1" as="geometry">
            <mxPoint x="24" y="38" as="targetPoint" />
            <mxPoint x="45" y="8" as="sourcePoint" />
            <Array as="points">
              <mxPoint x="45" y="38" />
            </Array>
          </mxGeometry>
        </mxCell>
        <mxCell id="GF4_05wCOyr8yyP_YJ2G-240" value="&lt;font style=&quot;font-size: 24px;&quot; face=&quot;Times New Roman&quot;&gt;α&lt;/font&gt;&lt;font style=&quot;font-size: 20px;&quot; face=&quot;Times New Roman&quot;&gt;&lt;sub&gt;3&lt;/sub&gt;&lt;/font&gt;" style="text;strokeColor=none;align=center;fillColor=none;html=1;verticalAlign=middle;whiteSpace=wrap;rounded=0;" parent="GF4_05wCOyr8yyP_YJ2G-238" vertex="1">
          <mxGeometry width="60" height="30" as="geometry" />
        </mxCell>
        <mxCell id="GF4_05wCOyr8yyP_YJ2G-241" value="" style="group" parent="1" vertex="1" connectable="0">
          <mxGeometry x="1230" y="1600" width="60" height="38" as="geometry" />
        </mxCell>
        <mxCell id="GF4_05wCOyr8yyP_YJ2G-242" style="edgeStyle=orthogonalEdgeStyle;curved=1;rounded=0;orthogonalLoop=1;jettySize=auto;html=1;elbow=vertical;" parent="GF4_05wCOyr8yyP_YJ2G-241" edge="1">
          <mxGeometry relative="1" as="geometry">
            <mxPoint x="24" y="38" as="targetPoint" />
            <mxPoint x="45" y="8" as="sourcePoint" />
            <Array as="points">
              <mxPoint x="45" y="38" />
            </Array>
          </mxGeometry>
        </mxCell>
        <mxCell id="GF4_05wCOyr8yyP_YJ2G-243" value="&lt;font face=&quot;Times New Roman&quot;&gt;&lt;span style=&quot;font-size: 24px;&quot;&gt;β&lt;sub&gt;3&lt;/sub&gt;&lt;/span&gt;&lt;/font&gt;" style="text;strokeColor=none;align=center;fillColor=none;html=1;verticalAlign=middle;whiteSpace=wrap;rounded=0;" parent="GF4_05wCOyr8yyP_YJ2G-241" vertex="1">
          <mxGeometry width="60" height="30" as="geometry" />
        </mxCell>
        <mxCell id="GF4_05wCOyr8yyP_YJ2G-234" style="edgeStyle=orthogonalEdgeStyle;curved=1;rounded=0;orthogonalLoop=1;jettySize=auto;html=1;elbow=vertical;" parent="1" edge="1">
          <mxGeometry relative="1" as="geometry">
            <mxPoint x="1251" y="1376.79" as="targetPoint" />
            <mxPoint x="1272" y="1346.79" as="sourcePoint" />
            <Array as="points">
              <mxPoint x="1272" y="1376.79" />
            </Array>
          </mxGeometry>
        </mxCell>
        <mxCell id="GF4_05wCOyr8yyP_YJ2G-235" value="&lt;font face=&quot;Times New Roman&quot;&gt;&lt;span style=&quot;font-size: 20px;&quot;&gt;β&lt;sub&gt;1&lt;/sub&gt;&lt;/span&gt;&lt;/font&gt;" style="text;strokeColor=none;align=center;fillColor=none;html=1;verticalAlign=middle;whiteSpace=wrap;rounded=0;" parent="1" vertex="1">
          <mxGeometry x="1227" y="1338.79" width="60" height="30" as="geometry" />
        </mxCell>
        <mxCell id="GF4_05wCOyr8yyP_YJ2G-191" value="&lt;font style=&quot;font-size: 18px;&quot; face=&quot;Times New Roman&quot;&gt;Training&lt;/font&gt;" style="text;strokeColor=none;align=center;fillColor=none;html=1;verticalAlign=middle;whiteSpace=wrap;rounded=0;" parent="1" vertex="1">
          <mxGeometry x="488" y="1790" width="60" height="30" as="geometry" />
        </mxCell>
        <mxCell id="GF4_05wCOyr8yyP_YJ2G-187" value="" style="rounded=1;whiteSpace=wrap;html=1;rotation=90;fillColor=#e1d5e7;strokeColor=#9673a6;opacity=60;" parent="1" vertex="1">
          <mxGeometry x="978" y="1719.09" width="258.51" height="396.5" as="geometry" />
        </mxCell>
        <mxCell id="GF4_05wCOyr8yyP_YJ2G-265" value="&lt;font face=&quot;Times New Roman&quot; style=&quot;font-size: 24px;&quot;&gt;&lt;b&gt;+&lt;/b&gt;&lt;/font&gt;" style="ellipse;whiteSpace=wrap;html=1;aspect=fixed;rotation=90;strokeWidth=2;" parent="1" vertex="1">
          <mxGeometry x="1093.4" y="1890" width="37.99" height="37.99" as="geometry" />
        </mxCell>
        <mxCell id="GF4_05wCOyr8yyP_YJ2G-266" style="rounded=0;orthogonalLoop=1;jettySize=auto;html=1;exitX=0;exitY=0;exitDx=100;exitDy=50;exitPerimeter=0;strokeWidth=3;entryX=0.497;entryY=0;entryDx=0;entryDy=0;entryPerimeter=0;" parent="1" edge="1" target="GF4_05wCOyr8yyP_YJ2G-267">
          <mxGeometry relative="1" as="geometry">
            <mxPoint x="1111.8981481481483" y="1966.3647826086958" as="targetPoint" />
            <mxPoint x="1111.8981481481483" y="1927.234347826087" as="sourcePoint" />
          </mxGeometry>
        </mxCell>
        <mxCell id="GF4_05wCOyr8yyP_YJ2G-267" value="&lt;font face=&quot;Times New Roman&quot;&gt;&lt;span style=&quot;font-size: 24px;&quot;&gt;classification&lt;/span&gt;&lt;/font&gt;" style="rounded=1;whiteSpace=wrap;html=1;fillColor=#6d8764;strokeColor=#3A5431;fontColor=#ffffff;rotation=0;" parent="1" vertex="1">
          <mxGeometry x="1020" y="1980" width="184.79" height="58.69" as="geometry" />
        </mxCell>
        <mxCell id="GF4_05wCOyr8yyP_YJ2G-193" value="&lt;font style=&quot;font-size: 18px;&quot; face=&quot;Times New Roman&quot;&gt;Inference&lt;/font&gt;" style="text;strokeColor=none;align=center;fillColor=none;html=1;verticalAlign=middle;whiteSpace=wrap;rounded=0;" parent="1" vertex="1">
          <mxGeometry x="930" y="1790" width="60" height="30" as="geometry" />
        </mxCell>
        <mxCell id="GF4_05wCOyr8yyP_YJ2G-277" value="" style="endArrow=classic;html=1;rounded=0;curved=1;elbow=vertical;exitX=0.75;exitY=0;exitDx=0;exitDy=0;" parent="1" source="GF4_05wCOyr8yyP_YJ2G-193" edge="1">
          <mxGeometry width="50" height="50" relative="1" as="geometry">
            <mxPoint x="1330" y="1850" as="sourcePoint" />
            <mxPoint x="1099" y="1896" as="targetPoint" />
          </mxGeometry>
        </mxCell>
        <mxCell id="GF4_05wCOyr8yyP_YJ2G-282" value="" style="endArrow=classic;html=1;rounded=0;curved=1;elbow=vertical;" parent="1" edge="1">
          <mxGeometry width="50" height="50" relative="1" as="geometry">
            <mxPoint x="1020" y="1790" as="sourcePoint" />
            <mxPoint x="1103" y="1890" as="targetPoint" />
          </mxGeometry>
        </mxCell>
        <mxCell id="GF4_05wCOyr8yyP_YJ2G-283" value="" style="endArrow=classic;html=1;rounded=0;curved=1;elbow=vertical;exitX=0.75;exitY=0;exitDx=0;exitDy=0;entryX=0;entryY=0.5;entryDx=0;entryDy=0;" parent="1" target="GF4_05wCOyr8yyP_YJ2G-265" edge="1">
          <mxGeometry width="50" height="50" relative="1" as="geometry">
            <mxPoint x="1060" y="1790" as="sourcePoint" />
            <mxPoint x="1184" y="1896" as="targetPoint" />
          </mxGeometry>
        </mxCell>
        <mxCell id="GF4_05wCOyr8yyP_YJ2G-284" value="" style="endArrow=classic;html=1;rounded=0;curved=1;elbow=vertical;entryX=0;entryY=0.5;entryDx=0;entryDy=0;" parent="1" target="GF4_05wCOyr8yyP_YJ2G-265" edge="1">
          <mxGeometry width="50" height="50" relative="1" as="geometry">
            <mxPoint x="1153" y="1787" as="sourcePoint" />
            <mxPoint x="1169" y="1966" as="targetPoint" />
          </mxGeometry>
        </mxCell>
        <mxCell id="GF4_05wCOyr8yyP_YJ2G-285" value="" style="endArrow=classic;html=1;rounded=0;curved=1;elbow=vertical;exitX=0;exitY=0.296;exitDx=0;exitDy=0;exitPerimeter=0;" parent="1" edge="1" source="GF4_05wCOyr8yyP_YJ2G-187">
          <mxGeometry width="50" height="50" relative="1" as="geometry">
            <mxPoint x="1202" y="1791" as="sourcePoint" />
            <mxPoint x="1121" y="1891" as="targetPoint" />
          </mxGeometry>
        </mxCell>
        <mxCell id="GF4_05wCOyr8yyP_YJ2G-286" value="" style="endArrow=classic;html=1;rounded=0;curved=1;elbow=vertical;exitX=0.011;exitY=0.203;exitDx=0;exitDy=0;exitPerimeter=0;" parent="1" source="GF4_05wCOyr8yyP_YJ2G-187" edge="1">
          <mxGeometry width="50" height="50" relative="1" as="geometry">
            <mxPoint x="1245" y="1795" as="sourcePoint" />
            <mxPoint x="1130" y="1900" as="targetPoint" />
          </mxGeometry>
        </mxCell>
        <mxCell id="GF4_05wCOyr8yyP_YJ2G-288" value="" style="endArrow=classic;html=1;rounded=0;elbow=vertical;" parent="1" edge="1">
          <mxGeometry width="50" height="50" relative="1" as="geometry">
            <mxPoint x="530" y="1830" as="sourcePoint" />
            <mxPoint x="530" y="1876" as="targetPoint" />
          </mxGeometry>
        </mxCell>
        <mxCell id="GF4_05wCOyr8yyP_YJ2G-289" value="" style="endArrow=classic;html=1;rounded=0;elbow=vertical;" parent="1" edge="1">
          <mxGeometry width="50" height="50" relative="1" as="geometry">
            <mxPoint x="569" y="1830" as="sourcePoint" />
            <mxPoint x="569" y="1876" as="targetPoint" />
          </mxGeometry>
        </mxCell>
        <mxCell id="GF4_05wCOyr8yyP_YJ2G-291" value="" style="endArrow=classic;html=1;rounded=0;elbow=vertical;" parent="1" edge="1">
          <mxGeometry width="50" height="50" relative="1" as="geometry">
            <mxPoint x="640" y="1834" as="sourcePoint" />
            <mxPoint x="640" y="1880" as="targetPoint" />
            <Array as="points">
              <mxPoint x="640" y="1854" />
            </Array>
          </mxGeometry>
        </mxCell>
        <mxCell id="GF4_05wCOyr8yyP_YJ2G-292" value="" style="endArrow=classic;html=1;rounded=0;elbow=vertical;" parent="1" edge="1">
          <mxGeometry width="50" height="50" relative="1" as="geometry">
            <mxPoint x="684" y="1834" as="sourcePoint" />
            <mxPoint x="684" y="1880" as="targetPoint" />
          </mxGeometry>
        </mxCell>
        <mxCell id="GF4_05wCOyr8yyP_YJ2G-293" value="" style="endArrow=classic;html=1;rounded=0;elbow=vertical;" parent="1" edge="1">
          <mxGeometry width="50" height="50" relative="1" as="geometry">
            <mxPoint x="760" y="1830" as="sourcePoint" />
            <mxPoint x="760" y="1876" as="targetPoint" />
          </mxGeometry>
        </mxCell>
        <mxCell id="GF4_05wCOyr8yyP_YJ2G-295" value="&lt;font style=&quot;font-size: 18px;&quot; face=&quot;Times New Roman&quot;&gt;mu-Loss1&lt;/font&gt;" style="rounded=1;whiteSpace=wrap;html=1;fillColor=#fa6800;strokeColor=#C73500;fontColor=#000000;rotation=0;" parent="1" vertex="1">
          <mxGeometry x="505.21" y="1880" width="84.79" height="30" as="geometry" />
        </mxCell>
        <mxCell id="GF4_05wCOyr8yyP_YJ2G-297" value="" style="endArrow=classic;html=1;rounded=0;elbow=vertical;" parent="1" edge="1">
          <mxGeometry width="50" height="50" relative="1" as="geometry">
            <mxPoint x="800" y="1830" as="sourcePoint" />
            <mxPoint x="800" y="1876" as="targetPoint" />
          </mxGeometry>
        </mxCell>
        <mxCell id="GF4_05wCOyr8yyP_YJ2G-298" value="&lt;font style=&quot;font-size: 18px;&quot; face=&quot;Times New Roman&quot;&gt;mu-Loss2&lt;/font&gt;" style="rounded=1;whiteSpace=wrap;html=1;fillColor=#fa6800;strokeColor=#C73500;fontColor=#000000;rotation=0;" parent="1" vertex="1">
          <mxGeometry x="612.6" y="1880" width="84.79" height="30" as="geometry" />
        </mxCell>
        <mxCell id="GF4_05wCOyr8yyP_YJ2G-299" value="&lt;font style=&quot;font-size: 18px;&quot; face=&quot;Times New Roman&quot;&gt;mu-Loss3&lt;/font&gt;" style="rounded=1;whiteSpace=wrap;html=1;fillColor=#fa6800;strokeColor=#C73500;fontColor=#000000;rotation=0;" parent="1" vertex="1">
          <mxGeometry x="740" y="1880" width="84.79" height="30" as="geometry" />
        </mxCell>
        <mxCell id="GF4_05wCOyr8yyP_YJ2G-304" style="edgeStyle=orthogonalEdgeStyle;rounded=1;orthogonalLoop=1;jettySize=auto;html=1;elbow=vertical;endSize=6;strokeWidth=2;opacity=80;strokeColor=#323b86;dashed=1;dashPattern=1 1;" parent="1" edge="1">
          <mxGeometry relative="1" as="geometry">
            <mxPoint x="485" y="1920" as="targetPoint" />
            <mxPoint x="530" y="1850" as="sourcePoint" />
            <Array as="points">
              <mxPoint x="530" y="1847" />
              <mxPoint x="485" y="1847" />
            </Array>
          </mxGeometry>
        </mxCell>
        <mxCell id="GF4_05wCOyr8yyP_YJ2G-307" style="edgeStyle=orthogonalEdgeStyle;rounded=1;orthogonalLoop=1;jettySize=auto;html=1;elbow=vertical;endSize=6;strokeWidth=2;opacity=80;strokeColor=#323b86;dashed=1;dashPattern=1 1;" parent="1" edge="1">
          <mxGeometry relative="1" as="geometry">
            <mxPoint x="710" y="1920" as="targetPoint" />
            <mxPoint x="685" y="1847" as="sourcePoint" />
            <Array as="points">
              <mxPoint x="710" y="1847" />
              <mxPoint x="710" y="1920" />
            </Array>
          </mxGeometry>
        </mxCell>
        <mxCell id="GF4_05wCOyr8yyP_YJ2G-306" value="&lt;font style=&quot;font-size: 14px;&quot; face=&quot;Times New Roman&quot;&gt;CELoss&lt;/font&gt;" style="rounded=1;whiteSpace=wrap;html=1;fillColor=#647687;strokeColor=#314354;fontColor=#ffffff;rotation=0;opacity=70;" parent="1" vertex="1">
          <mxGeometry x="450" y="1920" width="400" height="30" as="geometry" />
        </mxCell>
        <mxCell id="GF4_05wCOyr8yyP_YJ2G-311" style="edgeStyle=orthogonalEdgeStyle;rounded=1;orthogonalLoop=1;jettySize=auto;html=1;elbow=vertical;endSize=6;strokeWidth=2;opacity=80;strokeColor=#323b86;dashed=1;dashPattern=1 1;" parent="1" edge="1">
          <mxGeometry relative="1" as="geometry">
            <mxPoint x="610" y="1920" as="targetPoint" />
            <mxPoint x="640" y="1850" as="sourcePoint" />
            <Array as="points">
              <mxPoint x="640" y="1847" />
              <mxPoint x="610" y="1847" />
              <mxPoint x="610" y="1920" />
            </Array>
          </mxGeometry>
        </mxCell>
        <mxCell id="GF4_05wCOyr8yyP_YJ2G-312" style="edgeStyle=orthogonalEdgeStyle;rounded=1;orthogonalLoop=1;jettySize=auto;html=1;elbow=vertical;endSize=6;strokeWidth=2;opacity=80;strokeColor=#323b86;dashed=1;dashPattern=1 1;" parent="1" edge="1">
          <mxGeometry relative="1" as="geometry">
            <mxPoint x="600" y="1920" as="targetPoint" />
            <mxPoint x="570" y="1850" as="sourcePoint" />
            <Array as="points">
              <mxPoint x="600" y="1850" />
            </Array>
          </mxGeometry>
        </mxCell>
        <mxCell id="GF4_05wCOyr8yyP_YJ2G-313" style="edgeStyle=orthogonalEdgeStyle;rounded=1;orthogonalLoop=1;jettySize=auto;html=1;elbow=vertical;endSize=6;strokeWidth=2;opacity=80;strokeColor=#323b86;dashed=1;dashPattern=1 1;" parent="1" edge="1">
          <mxGeometry relative="1" as="geometry">
            <mxPoint x="730" y="1920" as="targetPoint" />
            <mxPoint x="760" y="1850" as="sourcePoint" />
            <Array as="points">
              <mxPoint x="760" y="1847" />
              <mxPoint x="730" y="1847" />
              <mxPoint x="730" y="1920" />
            </Array>
          </mxGeometry>
        </mxCell>
        <mxCell id="GF4_05wCOyr8yyP_YJ2G-314" style="edgeStyle=orthogonalEdgeStyle;rounded=1;orthogonalLoop=1;jettySize=auto;html=1;elbow=vertical;endSize=6;strokeWidth=2;opacity=80;strokeColor=#323b86;dashed=1;dashPattern=1 1;" parent="1" edge="1">
          <mxGeometry relative="1" as="geometry">
            <mxPoint x="831" y="1920" as="targetPoint" />
            <mxPoint x="801" y="1850" as="sourcePoint" />
            <Array as="points">
              <mxPoint x="831" y="1850" />
            </Array>
          </mxGeometry>
        </mxCell>
        <mxCell id="GF4_05wCOyr8yyP_YJ2G-315" value="&lt;font face=&quot;Times New Roman&quot;&gt;&lt;span style=&quot;font-size: 24px;&quot;&gt;Loss&lt;/span&gt;&lt;/font&gt;" style="rounded=1;whiteSpace=wrap;html=1;fillColor=#6d8764;strokeColor=#3A5431;fontColor=#ffffff;rotation=0;" parent="1" vertex="1">
          <mxGeometry x="597.39" y="2000" width="100" height="38.69" as="geometry" />
        </mxCell>
        <mxCell id="GF4_05wCOyr8yyP_YJ2G-316" style="edgeStyle=orthogonalEdgeStyle;rounded=1;orthogonalLoop=1;jettySize=auto;html=1;elbow=vertical;endSize=6;strokeWidth=2;opacity=60;strokeColor=#323b86;dashed=1;dashPattern=1 1;exitX=0.5;exitY=1;exitDx=0;exitDy=0;" parent="1" source="GF4_05wCOyr8yyP_YJ2G-295" target="GF4_05wCOyr8yyP_YJ2G-315" edge="1">
          <mxGeometry relative="1" as="geometry">
            <mxPoint x="460.21" y="1970" as="targetPoint" />
            <mxPoint x="505.21" y="1900" as="sourcePoint" />
            <Array as="points">
              <mxPoint x="548" y="2019" />
            </Array>
          </mxGeometry>
        </mxCell>
        <mxCell id="GF4_05wCOyr8yyP_YJ2G-317" style="edgeStyle=orthogonalEdgeStyle;rounded=1;orthogonalLoop=1;jettySize=auto;html=1;elbow=vertical;endSize=6;strokeWidth=2;opacity=60;strokeColor=#323b86;dashed=1;dashPattern=1 1;" parent="1" edge="1">
          <mxGeometry relative="1" as="geometry">
            <mxPoint x="625" y="2000" as="targetPoint" />
            <mxPoint x="625" y="1910" as="sourcePoint" />
            <Array as="points">
              <mxPoint x="625" y="1910" />
            </Array>
          </mxGeometry>
        </mxCell>
        <mxCell id="GF4_05wCOyr8yyP_YJ2G-318" style="edgeStyle=orthogonalEdgeStyle;rounded=1;orthogonalLoop=1;jettySize=auto;html=1;elbow=vertical;endSize=6;strokeWidth=2;opacity=60;strokeColor=#323b86;dashed=1;dashPattern=1 1;exitX=0.5;exitY=1;exitDx=0;exitDy=0;entryX=1;entryY=0.5;entryDx=0;entryDy=0;" parent="1" source="GF4_05wCOyr8yyP_YJ2G-299" target="GF4_05wCOyr8yyP_YJ2G-315" edge="1">
          <mxGeometry relative="1" as="geometry">
            <mxPoint x="620" y="2039" as="targetPoint" />
            <mxPoint x="568" y="1930" as="sourcePoint" />
            <Array as="points">
              <mxPoint x="782" y="2019" />
            </Array>
          </mxGeometry>
        </mxCell>
        <mxCell id="GF4_05wCOyr8yyP_YJ2G-319" style="edgeStyle=orthogonalEdgeStyle;rounded=1;orthogonalLoop=1;jettySize=auto;html=1;elbow=vertical;endSize=6;strokeWidth=2;opacity=60;strokeColor=#323b86;dashed=1;dashPattern=1 1;" parent="1" edge="1">
          <mxGeometry relative="1" as="geometry">
            <mxPoint x="680" y="2000" as="targetPoint" />
            <mxPoint x="680" y="1950" as="sourcePoint" />
            <Array as="points">
              <mxPoint x="680" y="1950" />
            </Array>
          </mxGeometry>
        </mxCell>
        <mxCell id="GF4_05wCOyr8yyP_YJ2G-143" value="" style="rounded=0;whiteSpace=wrap;html=1;rotation=0;fillColor=#d5e8d4;strokeColor=#82b366;" parent="1" vertex="1">
          <mxGeometry x="1091.42" y="1433.92" width="100.75" height="26.08" as="geometry" />
        </mxCell>
        <mxCell id="GF4_05wCOyr8yyP_YJ2G-144" value="" style="ellipse;whiteSpace=wrap;html=1;aspect=fixed;fillColor=#d5e8d4;strokeColor=#82b366;rotation=-90;" parent="1" vertex="1">
          <mxGeometry x="1092.2572387746538" y="1436.6666666666667" width="23.507623443838224" height="23.507623443838224" as="geometry" />
        </mxCell>
        <mxCell id="GF4_05wCOyr8yyP_YJ2G-145" value="" style="ellipse;whiteSpace=wrap;html=1;aspect=fixed;fillColor=#d5e8d4;strokeColor=#82b366;rotation=-90;" parent="1" vertex="1">
          <mxGeometry x="1144.3098335431528" y="1435.75" width="23.507623443838224" height="23.507623443838224" as="geometry" />
        </mxCell>
        <mxCell id="GF4_05wCOyr8yyP_YJ2G-146" value="" style="ellipse;whiteSpace=wrap;html=1;aspect=fixed;fillColor=#d5e8d4;strokeColor=#82b366;rotation=-90;" parent="1" vertex="1">
          <mxGeometry x="1168.6570149671281" y="1435.75" width="23.507623443838224" height="23.507623443838224" as="geometry" />
        </mxCell>
        <mxCell id="GF4_05wCOyr8yyP_YJ2G-147" value="&lt;font style=&quot;font-size: 24px;&quot; face=&quot;Times New Roman&quot;&gt;...&lt;/font&gt;" style="text;strokeColor=none;align=center;fillColor=none;html=1;verticalAlign=middle;whiteSpace=wrap;rounded=0;rotation=-360;" parent="1" vertex="1">
          <mxGeometry x="1106.5297244369842" y="1432.0833333333333" width="50.37347880822476" height="23.375" as="geometry" />
        </mxCell>
        <mxCell id="GF4_05wCOyr8yyP_YJ2G-150" value="" style="rounded=0;whiteSpace=wrap;html=1;rotation=0;fillColor=#f8cecc;strokeColor=#b85450;" parent="1" vertex="1">
          <mxGeometry x="1092.41" y="1376.42" width="100.75" height="27.58" as="geometry" />
        </mxCell>
        <mxCell id="GF4_05wCOyr8yyP_YJ2G-151" value="" style="ellipse;whiteSpace=wrap;html=1;aspect=fixed;fillColor=#f8cecc;strokeColor=#b85450;rotation=-90;" parent="1" vertex="1">
          <mxGeometry x="1093.2472387746539" y="1379.1666666666667" width="23.507623443838224" height="23.507623443838224" as="geometry" />
        </mxCell>
        <mxCell id="GF4_05wCOyr8yyP_YJ2G-152" value="" style="ellipse;whiteSpace=wrap;html=1;aspect=fixed;fillColor=#f8cecc;strokeColor=#b85450;rotation=-90;" parent="1" vertex="1">
          <mxGeometry x="1145.2998335431528" y="1378.25" width="23.507623443838224" height="23.507623443838224" as="geometry" />
        </mxCell>
        <mxCell id="GF4_05wCOyr8yyP_YJ2G-153" value="" style="ellipse;whiteSpace=wrap;html=1;aspect=fixed;fillColor=#f8cecc;strokeColor=#b85450;rotation=-90;" parent="1" vertex="1">
          <mxGeometry x="1169.6470149671281" y="1378.25" width="23.507623443838224" height="23.507623443838224" as="geometry" />
        </mxCell>
        <mxCell id="GF4_05wCOyr8yyP_YJ2G-154" value="&lt;font style=&quot;font-size: 24px;&quot; face=&quot;Times New Roman&quot;&gt;...&lt;/font&gt;" style="text;strokeColor=none;align=center;fillColor=none;html=1;verticalAlign=middle;whiteSpace=wrap;rounded=0;rotation=-360;" parent="1" vertex="1">
          <mxGeometry x="1107.5197244369842" y="1374.5833333333333" width="50.37347880822476" height="23.375" as="geometry" />
        </mxCell>
        <mxCell id="GF4_05wCOyr8yyP_YJ2G-123" value="" style="rounded=0;whiteSpace=wrap;html=1;rotation=0;fillColor=#d5e8d4;strokeColor=#82b366;" parent="1" vertex="1">
          <mxGeometry x="1092.42" y="1491.92" width="100.75" height="28.08" as="geometry" />
        </mxCell>
        <mxCell id="GF4_05wCOyr8yyP_YJ2G-124" value="" style="ellipse;whiteSpace=wrap;html=1;aspect=fixed;fillColor=#d5e8d4;strokeColor=#82b366;rotation=-90;" parent="1" vertex="1">
          <mxGeometry x="1093.2572387746538" y="1494.6666666666667" width="23.507623443838224" height="23.507623443838224" as="geometry" />
        </mxCell>
        <mxCell id="GF4_05wCOyr8yyP_YJ2G-125" value="" style="ellipse;whiteSpace=wrap;html=1;aspect=fixed;fillColor=#d5e8d4;strokeColor=#82b366;rotation=-90;" parent="1" vertex="1">
          <mxGeometry x="1145.3098335431528" y="1493.75" width="23.507623443838224" height="23.507623443838224" as="geometry" />
        </mxCell>
        <mxCell id="GF4_05wCOyr8yyP_YJ2G-126" value="" style="ellipse;whiteSpace=wrap;html=1;aspect=fixed;fillColor=#d5e8d4;strokeColor=#82b366;rotation=-90;" parent="1" vertex="1">
          <mxGeometry x="1169.6570149671281" y="1493.75" width="23.507623443838224" height="23.507623443838224" as="geometry" />
        </mxCell>
        <mxCell id="GF4_05wCOyr8yyP_YJ2G-127" value="&lt;font style=&quot;font-size: 24px;&quot; face=&quot;Times New Roman&quot;&gt;...&lt;/font&gt;" style="text;strokeColor=none;align=center;fillColor=none;html=1;verticalAlign=middle;whiteSpace=wrap;rounded=0;rotation=-360;" parent="1" vertex="1">
          <mxGeometry x="1107.5297244369842" y="1490.0833333333333" width="50.37347880822476" height="23.375" as="geometry" />
        </mxCell>
        <mxCell id="GF4_05wCOyr8yyP_YJ2G-164" value="" style="rounded=0;whiteSpace=wrap;html=1;rotation=0;fillColor=#dae8fc;strokeColor=#6c8ebf;" parent="1" vertex="1">
          <mxGeometry x="1092.42" y="1563.92" width="100.75" height="26.08" as="geometry" />
        </mxCell>
        <mxCell id="GF4_05wCOyr8yyP_YJ2G-165" value="" style="ellipse;whiteSpace=wrap;html=1;aspect=fixed;fillColor=#dae8fc;strokeColor=#6c8ebf;rotation=-90;" parent="1" vertex="1">
          <mxGeometry x="1093.2572387746538" y="1566.6666666666667" width="23.507623443838224" height="23.507623443838224" as="geometry" />
        </mxCell>
        <mxCell id="GF4_05wCOyr8yyP_YJ2G-166" value="" style="ellipse;whiteSpace=wrap;html=1;aspect=fixed;fillColor=#dae8fc;strokeColor=#6c8ebf;rotation=-90;" parent="1" vertex="1">
          <mxGeometry x="1145.3098335431528" y="1565.75" width="23.507623443838224" height="23.507623443838224" as="geometry" />
        </mxCell>
        <mxCell id="GF4_05wCOyr8yyP_YJ2G-167" value="" style="ellipse;whiteSpace=wrap;html=1;aspect=fixed;fillColor=#dae8fc;strokeColor=#6c8ebf;rotation=-90;" parent="1" vertex="1">
          <mxGeometry x="1169.6570149671281" y="1565.75" width="23.507623443838224" height="23.507623443838224" as="geometry" />
        </mxCell>
        <mxCell id="GF4_05wCOyr8yyP_YJ2G-168" value="&lt;font style=&quot;font-size: 24px;&quot; face=&quot;Times New Roman&quot;&gt;...&lt;/font&gt;" style="text;strokeColor=none;align=center;fillColor=none;html=1;verticalAlign=middle;whiteSpace=wrap;rounded=0;rotation=-360;" parent="1" vertex="1">
          <mxGeometry x="1107.5297244369842" y="1562.0833333333333" width="50.37347880822476" height="23.375" as="geometry" />
        </mxCell>
        <mxCell id="GF4_05wCOyr8yyP_YJ2G-135" value="" style="rounded=0;whiteSpace=wrap;html=1;rotation=0;fillColor=#dae8fc;strokeColor=#6c8ebf;" parent="1" vertex="1">
          <mxGeometry x="1091.42" y="1632.92" width="100.75" height="27.08" as="geometry" />
        </mxCell>
        <mxCell id="GF4_05wCOyr8yyP_YJ2G-136" value="" style="ellipse;whiteSpace=wrap;html=1;aspect=fixed;fillColor=#dae8fc;strokeColor=#6c8ebf;rotation=-90;" parent="1" vertex="1">
          <mxGeometry x="1092.2572387746538" y="1635.6666666666667" width="23.507623443838224" height="23.507623443838224" as="geometry" />
        </mxCell>
        <mxCell id="GF4_05wCOyr8yyP_YJ2G-137" value="" style="ellipse;whiteSpace=wrap;html=1;aspect=fixed;fillColor=#dae8fc;strokeColor=#6c8ebf;rotation=-90;" parent="1" vertex="1">
          <mxGeometry x="1144.3098335431528" y="1634.75" width="23.507623443838224" height="23.507623443838224" as="geometry" />
        </mxCell>
        <mxCell id="GF4_05wCOyr8yyP_YJ2G-138" value="" style="ellipse;whiteSpace=wrap;html=1;aspect=fixed;fillColor=#dae8fc;strokeColor=#6c8ebf;rotation=-90;" parent="1" vertex="1">
          <mxGeometry x="1168.6570149671281" y="1634.75" width="23.507623443838224" height="23.507623443838224" as="geometry" />
        </mxCell>
        <mxCell id="GF4_05wCOyr8yyP_YJ2G-139" value="&lt;font style=&quot;font-size: 24px;&quot; face=&quot;Times New Roman&quot;&gt;...&lt;/font&gt;" style="text;strokeColor=none;align=center;fillColor=none;html=1;verticalAlign=middle;whiteSpace=wrap;rounded=0;rotation=-360;" parent="1" vertex="1">
          <mxGeometry x="1106.5297244369842" y="1631.0833333333333" width="50.37347880822476" height="23.375" as="geometry" />
        </mxCell>
        <mxCell id="K-BeFOPW1x6MrwxLiArB-4" value="&lt;font style=&quot;font-size: 18px;&quot; face=&quot;Times New Roman&quot;&gt;Softmax&lt;/font&gt;" style="text;strokeColor=none;align=center;fillColor=none;html=1;verticalAlign=middle;whiteSpace=wrap;rounded=0;" vertex="1" parent="1">
          <mxGeometry x="1025.71" y="1910" width="70" height="30" as="geometry" />
        </mxCell>
      </root>
    </mxGraphModel>
  </diagram>
</mxfile>
